<svg width="220" height="67" viewBox="0 0 220 67" fill="none" xmlns="http://www.w3.org/2000/svg">
<g clip-path="url(#clip0_499_3630)">
<path d="M205.502 25.4507C206.903 25.4507 208.039 24.3164 208.039 22.9172C208.039 21.5181 206.903 20.3838 205.502 20.3838C204.1 20.3838 202.964 21.5181 202.964 22.9172C202.964 24.3164 204.1 25.4507 205.502 25.4507Z" fill="white"/>
<path d="M197.05 17.0049C198.451 17.0049 199.587 15.8706 199.587 14.4714C199.587 13.0723 198.451 11.938 197.05 11.938C195.649 11.938 194.513 13.0723 194.513 14.4714C194.513 15.8706 195.649 17.0049 197.05 17.0049Z" fill="white"/>
<path d="M205.502 17.0049C206.903 17.0049 208.039 15.8706 208.039 14.4714C208.039 13.0723 206.903 11.938 205.502 11.938C204.1 11.938 202.964 13.0723 202.964 14.4714C202.964 15.8706 204.1 17.0049 205.502 17.0049Z" fill="white"/>
<path d="M188.592 17.0049C189.993 17.0049 191.129 15.8706 191.129 14.4714C191.129 13.0723 189.993 11.938 188.592 11.938C187.191 11.938 186.055 13.0723 186.055 14.4714C186.055 15.8706 187.191 17.0049 188.592 17.0049Z" fill="white"/>
<path d="M213.274 6.7118C214.265 7.70093 214.265 9.30268 213.274 10.295C212.284 11.2873 210.679 11.2841 209.686 10.295C208.692 9.30587 208.695 7.70412 209.686 6.7118C210.676 5.71947 212.28 5.72266 213.274 6.7118Z" fill="white"/>
<path d="M219.254 0.741848C220.245 1.73098 220.245 3.33273 219.254 4.32506C218.264 5.31738 216.659 5.31419 215.666 4.32506C214.672 3.33592 214.675 1.73417 215.666 0.741848C216.656 -0.247283 218.26 -0.247283 219.254 0.741848Z" fill="white"/>
<path d="M180.131 17.0049C181.532 17.0049 182.668 15.8706 182.668 14.4714C182.668 13.0723 181.532 11.938 180.131 11.938C178.729 11.938 177.593 13.0723 177.593 14.4714C177.593 15.8706 178.729 17.0049 180.131 17.0049Z" fill="white"/>
<path d="M171.679 17.0049C173.08 17.0049 174.216 15.8706 174.216 14.4714C174.216 13.0723 173.08 11.938 171.679 11.938C170.278 11.938 169.142 13.0723 169.142 14.4714C169.142 15.8706 170.278 17.0049 171.679 17.0049Z" fill="white"/>
<path d="M205.502 33.896C206.903 33.896 208.039 32.7617 208.039 31.3626C208.039 29.9634 206.903 28.8291 205.502 28.8291C204.1 28.8291 202.964 29.9634 202.964 31.3626C202.964 32.7617 204.1 33.896 205.502 33.896Z" fill="white"/>
<path d="M173.127 57.772C174.528 57.772 175.664 56.6377 175.664 55.2385C175.664 53.8393 174.528 52.7051 173.127 52.7051C171.725 52.7051 170.589 53.8393 170.589 55.2385C170.589 56.6377 171.725 57.772 173.127 57.772Z" fill="white"/>
<path d="M164.675 49.3262C166.076 49.3262 167.212 48.1919 167.212 46.7927C167.212 45.3935 166.076 44.2593 164.675 44.2593C163.274 44.2593 162.138 45.3935 162.138 46.7927C162.138 48.1919 163.274 49.3262 164.675 49.3262Z" fill="white"/>
<path d="M173.127 49.3262C174.528 49.3262 175.664 48.1919 175.664 46.7927C175.664 45.3935 174.528 44.2593 173.127 44.2593C171.725 44.2593 170.589 45.3935 170.589 46.7927C170.589 48.1919 171.725 49.3262 173.127 49.3262Z" fill="white"/>
<path d="M156.214 49.3262C157.615 49.3262 158.751 48.1919 158.751 46.7927C158.751 45.3935 157.615 44.2593 156.214 44.2593C154.812 44.2593 153.676 45.3935 153.676 46.7927C153.676 48.1919 154.812 49.3262 156.214 49.3262Z" fill="white"/>
<path d="M173.127 66.2178C174.528 66.2178 175.664 65.0835 175.664 63.6843C175.664 62.2851 174.528 61.1509 173.127 61.1509C171.725 61.1509 170.589 62.2851 170.589 63.6843C170.589 65.0835 171.725 66.2178 173.127 66.2178Z" fill="white"/>
<path d="M205.502 42.3355C206.903 42.3355 208.039 41.2012 208.039 39.802C208.039 38.4028 206.903 37.2686 205.502 37.2686C204.1 37.2686 202.964 38.4028 202.964 39.802C202.964 41.2012 204.1 42.3355 205.502 42.3355Z" fill="white"/>
<path d="M205.502 45.7144C206.905 45.7144 208.039 46.8471 208.039 48.2478C208.039 49.6485 206.905 50.7813 205.502 50.7813C204.099 50.7813 202.964 49.6485 202.964 48.2478C202.964 46.8471 204.099 45.7144 205.502 45.7144Z" fill="white"/>
<path d="M185.083 37.3882C186.485 37.3882 187.621 36.2539 187.621 34.8547C187.621 33.4556 186.485 32.3213 185.083 32.3213C183.682 32.3213 182.546 33.4556 182.546 34.8547C182.546 36.2539 183.682 37.3882 185.083 37.3882Z" fill="white"/>
<path d="M192.863 27.0956C193.853 28.0847 193.853 29.6865 192.863 30.6788C191.872 31.6711 190.268 31.6679 189.274 30.6788C188.28 29.6897 188.283 28.0879 189.274 27.0956C190.265 26.1033 191.869 26.1065 192.863 27.0956Z" fill="white"/>
<path d="M198.838 21.12C199.829 22.1091 199.829 23.7109 198.838 24.7032C197.847 25.6955 196.243 25.6923 195.249 24.7032C194.259 23.7141 194.259 22.1123 195.249 21.12C196.24 20.1277 197.844 20.1309 198.838 21.12Z" fill="white"/>
<path d="M180.899 39.0336C181.889 40.0227 181.889 41.6245 180.899 42.6168C179.908 43.6091 178.304 43.6059 177.31 42.6168C176.316 41.6277 176.319 40.0259 177.31 39.0336C178.301 38.0413 179.905 38.0444 180.899 39.0336Z" fill="white"/>
<path fill-rule="evenodd" clip-rule="evenodd" d="M0 49.2321V12.162H5.46133V49.2321H0ZM25.303 49.2321V34.3664C25.303 32.5477 24.7278 31.0608 23.5933 29.8962C22.4972 28.6965 21.1327 28.0998 19.4965 28.0998C17.8604 28.0998 16.5725 28.6965 15.3934 29.9026C14.2589 31.064 13.6933 32.5477 13.6933 34.3728V49.2385H8.54512V34.3728C8.54512 31.0959 9.56772 28.3934 11.6193 26.3066C13.6773 24.2135 16.3105 23.1797 19.4902 23.1797C22.6698 23.1797 25.271 24.2231 27.361 26.3066C29.4509 28.3934 30.4927 31.0959 30.4927 34.3728V49.2385H25.2934L25.2998 49.2321H25.303ZM56.0961 45.8882C53.693 48.4663 50.5836 49.7554 46.8 49.7554C42.8023 49.7554 39.5555 48.3834 37.0789 45.6202C34.7525 43.007 33.5957 39.7365 33.5957 35.8342C33.5957 32.3052 34.7972 29.3091 37.1971 26.8746C39.629 24.4081 42.537 23.1733 45.9116 23.1733C48.5832 23.1733 50.9927 23.7604 53.1401 24.9378L53.2903 25.0207V30.5631L52.843 30.2568C51.9929 29.676 50.9767 29.1847 49.8071 28.7667C48.6727 28.32 47.6437 28.103 46.7041 28.103C44.2882 28.103 42.3709 28.8624 40.9296 30.3748C39.482 31.8872 38.7502 33.891 38.7502 36.4149C38.7502 38.9388 39.4948 40.9298 40.9808 42.506C42.4955 44.0472 44.4257 44.8289 46.8064 44.8289C49.0306 44.8289 50.8649 43.9865 52.3125 42.305C53.7889 40.6299 54.5494 38.1698 54.5494 34.8929V12.162H59.7487V35.7289C59.7487 39.8769 58.5408 43.275 56.1025 45.8882M63.3086 49.2321V23.6998H68.5079V49.2321H63.3086ZM68.166 20.5122C67.6451 21.1089 66.8686 21.3897 65.9067 21.3897C65.0055 21.3897 64.2354 21.0993 63.6474 20.5122C63.1105 19.9028 62.8357 19.1562 62.8357 18.3234C62.8357 17.4906 63.1041 16.7663 63.6474 16.1856C64.2066 15.5889 64.9672 15.3081 65.9067 15.3081C66.8462 15.3081 67.562 15.6144 68.1149 16.2398C68.6901 16.8141 68.9809 17.5129 68.9809 18.3266C68.9809 19.1913 68.7125 19.9283 68.1692 20.5154M132.321 30.4291C130.836 28.8784 128.956 28.1062 126.652 28.1062C124.348 28.1062 122.409 28.8815 120.932 30.4291C119.485 31.9351 118.753 33.9453 118.753 36.4691C118.753 38.993 119.497 40.9617 120.983 42.5092C122.469 44.0599 124.348 44.8321 126.652 44.8321C128.956 44.8321 130.845 44.0567 132.328 42.5092C133.811 40.9617 134.558 38.9579 134.558 36.4691C134.558 33.9804 133.814 31.9766 132.328 30.4291M136.044 46.0095C133.434 48.5046 130.302 49.7554 126.652 49.7554C123.003 49.7554 119.922 48.5046 117.312 46.0095C114.694 43.5079 113.387 40.3204 113.387 36.4691C113.387 32.6179 114.678 29.491 117.26 26.9799C119.871 24.4464 123.003 23.1733 126.652 23.1733C130.302 23.1733 133.382 24.44 135.993 26.9799C138.642 29.4814 139.969 32.6562 139.969 36.4691C139.969 40.2821 138.662 43.5079 136.044 46.0095ZM104.222 45.2341C100.598 48.3164 96.3291 49.8607 91.4302 49.8607C86.1702 49.8607 81.6196 48.0133 77.7849 44.3279C73.9789 40.6043 72.0775 36.0767 72.0775 30.7481C72.0775 25.4196 73.9789 20.8951 77.7849 17.1683C81.6196 13.4128 86.1702 11.5303 91.4302 11.5303C94.5395 11.5303 97.2782 12.044 99.6366 13.0714C101.995 14.0701 104.366 15.7676 106.76 18.167L106.955 18.3617L103.27 22.3309L103.062 22.1523C100.72 20.1995 98.9208 18.8818 97.6457 18.2053C95.7667 17.2162 93.6927 16.7152 91.4238 16.7152C87.506 16.7152 84.2624 18.0873 81.658 20.8185C79.0471 23.5594 77.7497 26.8586 77.7497 30.7386C77.7497 34.6185 79.0567 37.8667 81.658 40.6075C84.2592 43.3484 87.5124 44.7108 91.4238 44.7108C95.0413 44.7108 98.0867 43.6675 100.586 41.5839C103.174 39.4302 104.504 36.667 104.577 33.288H91.8201V28.1477H110.307V31.5299C110.307 37.1966 108.278 41.7785 104.219 45.2277" fill="white"/>
</g>
<defs>
<clipPath id="clip0_499_3630">
<rect width="220" height="66.2207" fill="white"/>
</clipPath>
</defs>
</svg>
